<svg xmlns="http://www.w3.org/2000/svg" width="115.073" height="60.017" viewBox="0 0 115.073 60.017">
  <g id="Group_2" data-name="Group 2" transform="translate(310.118 -704)">
    <g id="_031---Firefly" data-name="031---Firefly" transform="translate(-243.003 704)">
      <g id="Icons" transform="translate(1 1)">
        <path id="Shape" d="M31,10v5.53H15V10a5.93,5.93,0,0,1,1-3.34L23,4l7,2.66A5.93,5.93,0,0,1,31,10Z" fill="#f08882"/>
        <path id="Shape-2" data-name="Shape" d="M28,10v5.53H15c0-5.85-.22-7,.83-8.87L21.5,4l5.67,2.66A6.92,6.92,0,0,1,28,10Z" fill="#f8b2b5"/>
        <circle id="Oval" cx="4" cy="4" r="4" transform="translate(15)" fill="#fff"/>
        <circle id="Oval-2" data-name="Oval" cx="4" cy="4" r="4" transform="translate(23)" fill="#fff"/>
        <path id="Shape-3" data-name="Shape" d="M32.8,52a11,11,0,0,1-19.6,0C22.35,41.53,23,24,23,24S23.66,41.53,32.8,52Z" fill="#fcc1c4"/>
        <path id="Shape-4" data-name="Shape" d="M23,24S22.09,48.53,7.29,56.89c-.1,0-.6.4-2.29,1.11,0,0-15-21,7-37,0,0,2.62,2.62,9.5,3Z" fill="#fcc1c4"/>
        <path id="Shape-5" data-name="Shape" d="M41,58a21.07,21.07,0,0,1-2.29-1.11C23.92,48.53,23,24,23,24c7.74,0,10.8-2.82,11-3C56,37,41,58,41,58Z" fill="#ec7e79"/>
        <path id="Shape-6" data-name="Shape" d="M38.72,56.89C23.92,48.53,23,24,23,24a20.06,20.06,0,0,0,9.4-1.93C49.57,35.71,41.35,52.48,38.72,56.89Z" fill="#fcc1c4"/>
        <path id="Shape-7" data-name="Shape" d="M34,21s-3,3-11,3H21.5c-6.88-.35-9.5-3-9.5-3a11.79,11.79,0,0,1,9.5-8.88C27.09,11.23,32.92,15.59,34,21Z" fill="#f08882"/>
        <path id="Shape-8" data-name="Shape" d="M31,21s-2.62,2.62-9.5,3c-6.88-.35-9.5-3-9.5-3a11.79,11.79,0,0,1,9.5-8.88A11.79,11.79,0,0,1,31,21Z" fill="#fababd"/>
      </g>
      <path id="Shape-9" data-name="Shape" d="M15,21a11.55,11.55,0,0,1,3-5.47c0-5.79-.22-7,.83-8.87L19,6.59A4,4,0,0,1,20.5.3,3.94,3.94,0,0,0,19,0a4,4,0,0,0-3,6.59l-.15.07c-1,1.9-.83,3.08-.83,8.87A11.55,11.55,0,0,0,12,21C-10,37,5,58,5,58c1.69-.71,2.19-1.11,2.29-1.11C4.6,52.37-4,34.82,15,21Z" transform="translate(1 1)" fill="#fff0f1"/>
      <path id="Shape-10" data-name="Shape" d="M3.77,30.12l1.69,1.07a22.27,22.27,0,0,0-2.93,7L.58,37.75a24.12,24.12,0,0,1,3.19-7.63Z" fill="#fff2f3"/>
      <g id="Group_1" data-name="Group 1">
        <path id="Shape-11" data-name="Shape" d="M2.79,35.19a1,1,0,1,1,1-1A1,1,0,0,1,2.79,35.19Z" fill="#e77470"/>
        <path id="Shape-12" data-name="Shape" d="M35.89,21.42A11.91,11.91,0,0,0,33,16.15c0-5.27.23-6.42-.83-8.41A4.73,4.73,0,0,0,32.9,6c4-.39,5.1-3.35,5.1-5a1,1,0,0,0-2,0c0,.11,0,2.54-3.12,2.94A5,5,0,0,0,24,2a5,5,0,0,0-8.88,1.91C12.15,3.56,12,1.28,12,1a1,1,0,0,0-2,0c0,1.61,1.09,4.57,5.1,5a4.73,4.73,0,0,0,.73,1.78c-1.07,2-.83,3.15-.83,8.41a11.91,11.91,0,0,0-2.88,5.26,33.13,33.13,0,0,0-8.35,8.71,1,1,0,0,0,1.69,1.07A30.66,30.66,0,0,1,13,23.26c1.26.89,4.35,2.52,9.94,2.71-.38,4.8-2.83,25.43-16.55,31.77C4.93,55.4.51,47.28,2.53,38.22a1,1,0,1,0-1.95-.44C-2,49.35,4.89,59.17,5.19,59.58a1,1,0,0,0,1.19.34A22.61,22.61,0,0,0,14,54.65a12,12,0,0,0,20,0,22.65,22.65,0,0,0,7.64,5.27,1,1,0,0,0,1.19-.34C43,59.36,58,37.79,35.89,21.42ZM17.34,9.22A5,5,0,0,0,24,8a5,5,0,0,0,6.66,1.25c.48,1.25.34,2,.34,5.16a11.51,11.51,0,0,0-14,0c0-3.41-.11-4.01.34-5.19ZM28,2a3,3,0,1,1-3,3,3,3,0,0,1,3-3ZM20,2a3,3,0,1,1-3,3,3,3,0,0,1,3-3Zm4,12a10.85,10.85,0,0,1,9.88,7.61c-4.57,3.2-15.18,3.2-19.76,0A10.85,10.85,0,0,1,24,14ZM15.41,53.08C20,47.5,22.64,40.08,24,33c1.37,7.12,4,14.54,8.59,20.12a10,10,0,0,1-17.18-.04Zm26.23,4.67C27.91,51.41,25.46,30.77,25.07,26c5.58-.19,8.67-1.82,9.94-2.7C53.21,37,43.93,54.12,41.64,57.75Z" fill="#e77470"/>
        <circle id="Oval-3" data-name="Oval" cx="1" cy="1" r="1" transform="translate(20 4)" fill="#e77470"/>
        <circle id="Oval-4" data-name="Oval" cx="1" cy="1" r="1" transform="translate(26 4)" fill="#e77470"/>
      </g>
    </g>
    <g id="logo" transform="translate(-582.888 161.393)">
      <path id="Path_116" data-name="Path 116" d="M389.032,556.8c5.215,0,9.432,4.51,9.432,10.068s-4.216,10.068-9.432,10.068H379.6V566.868C379.6,561.31,383.816,556.8,389.032,556.8Z" transform="translate(-86.916 -5.403)" fill="#f7a84e"/>
      <path id="Path_118" data-name="Path 118" d="M389.779,648.719a14.281,14.281,0,0,0,7.44-2.019c-.043,17.621-7.548,21.276-17.62,21.743V648.719Z" transform="translate(-86.792 -75.219)" fill="#e35793"/>
      <path id="Path_691" data-name="Path 691" d="M389.032,556.8c-5.216,0-9.432,4.51-9.432,10.068s4.216,10.068,9.432,10.068h9.432V566.868C398.464,561.311,394.248,556.8,389.032,556.8Z" transform="translate(-106.83 -5.403)" fill="#aadd69"/>
      <path id="Path_692" data-name="Path 692" d="M387.041,648.719A14.282,14.282,0,0,1,379.6,646.7c.043,17.621,7.548,21.276,17.62,21.743V648.719Z" transform="translate(-105.711 -75.219)" fill="#61c7ed"/>
    </g>
    <text id="_" data-name="+" transform="translate(-263 742)" font-size="20" font-family="Lato-Black, Lato" font-weight="800"><tspan x="0" y="0">+</tspan></text>
  </g>
</svg>
