<?xml version="1.0" encoding="UTF-8" standalone="no"?>
<!DOCTYPE svg PUBLIC "-//W3C//DTD SVG 1.1//EN"
 "http://www.w3.org/Graphics/SVG/1.1/DTD/svg11.dtd">
<!-- Generated by graphviz version 2.40.1 (20161225.0304)
 -->
<!-- Title: dependencies Pages: 1 -->
<svg width="504pt" height="284pt"
 viewBox="0.00 0.00 504.00 284.00" xmlns="http://www.w3.org/2000/svg" xmlns:xlink="http://www.w3.org/1999/xlink">
<g id="graph0" class="graph" transform="scale(1 1) rotate(0) translate(4 280)">
<title>dependencies</title>
<polygon fill="#ffffff" stroke="transparent" points="-4,4 -4,-280 500,-280 500,4 -4,4"/>
<text text-anchor="start" x="227.0091" y="-42.4" font-family="sans-serif" font-weight="bold" font-size="14.00" fill="#000000">Legend</text>
<polygon fill="#ffffb3" stroke="transparent" points="14,-10 14,-30 34,-30 34,-10 14,-10"/>
<text text-anchor="start" x="37.629" y="-15.4" font-family="sans-serif" font-size="14.00" fill="#000000"> &#160;Declarations</text>
<polygon fill="#8dd3c7" stroke="transparent" points="127,-10 127,-30 147,-30 147,-10 127,-10"/>
<text text-anchor="start" x="150.7251" y="-15.4" font-family="sans-serif" font-size="14.00" fill="#000000"> &#160;Module</text>
<polygon fill="#80b1d3" stroke="transparent" points="213,-10 213,-30 233,-30 233,-10 213,-10"/>
<text text-anchor="start" x="236.7812" y="-15.4" font-family="sans-serif" font-size="14.00" fill="#000000"> &#160;Bootstrap</text>
<polygon fill="#fdb462" stroke="transparent" points="310,-10 310,-30 330,-30 330,-10 310,-10"/>
<text text-anchor="start" x="333.6732" y="-15.4" font-family="sans-serif" font-size="14.00" fill="#000000"> &#160;Providers</text>
<polygon fill="#fb8072" stroke="transparent" points="406,-10 406,-30 426,-30 426,-10 406,-10"/>
<text text-anchor="start" x="429.7258" y="-15.4" font-family="sans-serif" font-size="14.00" fill="#000000"> &#160;Exports</text>
<g id="clust1" class="cluster">
<title>cluster_UserModule</title>
<polygon fill="none" stroke="#000000" stroke-dasharray="1,5" points="102,-70 102,-268 394,-268 394,-70 102,-70"/>
</g>
<g id="clust4" class="cluster">
<title>cluster_UserModule_exports</title>
<polygon fill="none" stroke="#000000" points="193,-208 193,-260 297,-260 297,-208 193,-208"/>
</g>
<g id="clust6" class="cluster">
<title>cluster_UserModule_providers</title>
<polygon fill="none" stroke="#000000" points="110,-78 110,-130 386,-130 386,-78 110,-78"/>
</g>
<!-- UserService  -->
<g id="node1" class="node">
<title>UserService </title>
<polygon fill="#fb8072" stroke="#000000" points="288.9041,-252 201.0959,-252 201.0959,-216 288.9041,-216 288.9041,-252"/>
<text text-anchor="middle" x="245" y="-229.8" font-family="Times,serif" font-size="14.00" fill="#000000">UserService </text>
</g>
<!-- UserModule -->
<g id="node2" class="node">
<title>UserModule</title>
<polygon fill="#8dd3c7" stroke="#000000" points="287.9762,-187 284.9762,-191 263.9762,-191 260.9762,-187 202.0238,-187 202.0238,-151 287.9762,-151 287.9762,-187"/>
<text text-anchor="middle" x="245" y="-164.8" font-family="Times,serif" font-size="14.00" fill="#000000">UserModule</text>
</g>
<!-- UserModule&#45;&gt;UserService  -->
<g id="edge1" class="edge">
<title>UserModule&#45;&gt;UserService </title>
<path fill="none" stroke="#000000" stroke-dasharray="5,2" d="M245,-187.1061C245,-187.1061 245,-205.991 245,-205.991"/>
<polygon fill="#000000" stroke="#000000" points="241.5001,-205.9909 245,-215.991 248.5001,-205.991 241.5001,-205.9909"/>
</g>
<!-- ReplyService -->
<g id="node3" class="node">
<title>ReplyService</title>
<ellipse fill="#fdb462" stroke="#000000" cx="315" cy="-104" rx="63.1189" ry="18"/>
<text text-anchor="middle" x="315" y="-99.8" font-family="Times,serif" font-size="14.00" fill="#000000">ReplyService</text>
</g>
<!-- ReplyService&#45;&gt;UserModule -->
<g id="edge2" class="edge">
<title>ReplyService&#45;&gt;UserModule</title>
<path fill="none" stroke="#000000" d="M269.9643,-116.8419C269.9643,-116.8419 269.9643,-140.5231 269.9643,-140.5231"/>
<polygon fill="#000000" stroke="#000000" points="266.4644,-140.523 269.9643,-150.5231 273.4644,-140.5231 266.4644,-140.523"/>
</g>
<!-- UserService -->
<g id="node4" class="node">
<title>UserService</title>
<ellipse fill="#fdb462" stroke="#000000" cx="176" cy="-104" rx="58.4415" ry="18"/>
<text text-anchor="middle" x="176" y="-99.8" font-family="Times,serif" font-size="14.00" fill="#000000">UserService</text>
</g>
<!-- UserService&#45;&gt;UserModule -->
<g id="edge3" class="edge">
<title>UserService&#45;&gt;UserModule</title>
<path fill="none" stroke="#000000" d="M218.1161,-116.5327C218.1161,-116.5327 218.1161,-140.8507 218.1161,-140.8507"/>
<polygon fill="#000000" stroke="#000000" points="214.6162,-140.8506 218.1161,-150.8507 221.6162,-140.8507 214.6162,-140.8506"/>
</g>
</g>
</svg>
