<?xml version="1.0" encoding="UTF-8" standalone="no"?>
<!DOCTYPE svg PUBLIC "-//W3C//DTD SVG 1.1//EN"
 "http://www.w3.org/Graphics/SVG/1.1/DTD/svg11.dtd">
<!-- Generated by graphviz version 2.40.1 (20161225.0304)
 -->
<!-- Title: dependencies Pages: 1 -->
<svg width="504pt" height="211pt"
 viewBox="0.00 0.00 504.00 211.00" xmlns="http://www.w3.org/2000/svg" xmlns:xlink="http://www.w3.org/1999/xlink">
<g id="graph0" class="graph" transform="scale(1 1) rotate(0) translate(4 207)">
<title>dependencies</title>
<polygon fill="#ffffff" stroke="transparent" points="-4,4 -4,-207 500,-207 500,4 -4,4"/>
<text text-anchor="start" x="227.0091" y="-42.4" font-family="sans-serif" font-weight="bold" font-size="14.00" fill="#000000">Legend</text>
<polygon fill="#ffffb3" stroke="transparent" points="14,-10 14,-30 34,-30 34,-10 14,-10"/>
<text text-anchor="start" x="37.629" y="-15.4" font-family="sans-serif" font-size="14.00" fill="#000000"> &#160;Declarations</text>
<polygon fill="#8dd3c7" stroke="transparent" points="127,-10 127,-30 147,-30 147,-10 127,-10"/>
<text text-anchor="start" x="150.7251" y="-15.4" font-family="sans-serif" font-size="14.00" fill="#000000"> &#160;Module</text>
<polygon fill="#80b1d3" stroke="transparent" points="213,-10 213,-30 233,-30 233,-10 213,-10"/>
<text text-anchor="start" x="236.7812" y="-15.4" font-family="sans-serif" font-size="14.00" fill="#000000"> &#160;Bootstrap</text>
<polygon fill="#fdb462" stroke="transparent" points="310,-10 310,-30 330,-30 330,-10 310,-10"/>
<text text-anchor="start" x="333.6732" y="-15.4" font-family="sans-serif" font-size="14.00" fill="#000000"> &#160;Providers</text>
<polygon fill="#fb8072" stroke="transparent" points="406,-10 406,-30 426,-30 426,-10 406,-10"/>
<text text-anchor="start" x="429.7258" y="-15.4" font-family="sans-serif" font-size="14.00" fill="#000000"> &#160;Exports</text>
<g id="clust1" class="cluster">
<title>cluster_PostModule</title>
<polygon fill="none" stroke="#000000" stroke-dasharray="1,5" points="103,-70 103,-195 393,-195 393,-70 103,-70"/>
</g>
<g id="clust6" class="cluster">
<title>cluster_PostModule_providers</title>
<polygon fill="none" stroke="#000000" points="111,-78 111,-130 385,-130 385,-78 111,-78"/>
</g>
<!-- PostService -->
<g id="node1" class="node">
<title>PostService</title>
<ellipse fill="#fdb462" stroke="#000000" cx="320" cy="-104" rx="56.7561" ry="18"/>
<text text-anchor="middle" x="320" y="-99.8" font-family="Times,serif" font-size="14.00" fill="#000000">PostService</text>
</g>
<!-- PostModule -->
<g id="node3" class="node">
<title>PostModule</title>
<polygon fill="#8dd3c7" stroke="#000000" points="292.6683,-187 289.6683,-191 268.6683,-191 265.6683,-187 209.3317,-187 209.3317,-151 292.6683,-151 292.6683,-187"/>
<text text-anchor="middle" x="251" y="-164.8" font-family="Times,serif" font-size="14.00" fill="#000000">PostModule</text>
</g>
<!-- PostService&#45;&gt;PostModule -->
<g id="edge1" class="edge">
<title>PostService&#45;&gt;PostModule</title>
<path fill="none" stroke="#000000" d="M278.1029,-116.226C278.1029,-116.226 278.1029,-140.683 278.1029,-140.683"/>
<polygon fill="#000000" stroke="#000000" points="274.603,-140.683 278.1029,-150.683 281.603,-140.683 274.603,-140.683"/>
</g>
<!-- ReplyService -->
<g id="node2" class="node">
<title>ReplyService</title>
<ellipse fill="#fdb462" stroke="#000000" cx="182" cy="-104" rx="63.1189" ry="18"/>
<text text-anchor="middle" x="182" y="-99.8" font-family="Times,serif" font-size="14.00" fill="#000000">ReplyService</text>
</g>
<!-- ReplyService&#45;&gt;PostModule -->
<g id="edge2" class="edge">
<title>ReplyService&#45;&gt;PostModule</title>
<path fill="none" stroke="#000000" d="M227.1128,-116.8419C227.1128,-116.8419 227.1128,-140.5231 227.1128,-140.5231"/>
<polygon fill="#000000" stroke="#000000" points="223.6129,-140.523 227.1128,-150.5231 230.6129,-140.5231 223.6129,-140.523"/>
</g>
</g>
</svg>
