<?xml version="1.0" encoding="UTF-8" standalone="no"?>
<!DOCTYPE svg PUBLIC "-//W3C//DTD SVG 1.1//EN"
 "http://www.w3.org/Graphics/SVG/1.1/DTD/svg11.dtd">
<!-- Generated by graphviz version 2.40.1 (20161225.0304)
 -->
<!-- Title: dependencies Pages: 1 -->
<svg width="504pt" height="211pt"
 viewBox="0.00 0.00 504.00 211.00" xmlns="http://www.w3.org/2000/svg" xmlns:xlink="http://www.w3.org/1999/xlink">
<g id="graph0" class="graph" transform="scale(1 1) rotate(0) translate(4 207)">
<title>dependencies</title>
<polygon fill="#ffffff" stroke="transparent" points="-4,4 -4,-207 500,-207 500,4 -4,4"/>
<text text-anchor="start" x="227.0091" y="-42.4" font-family="sans-serif" font-weight="bold" font-size="14.00" fill="#000000">Legend</text>
<polygon fill="#ffffb3" stroke="transparent" points="14,-10 14,-30 34,-30 34,-10 14,-10"/>
<text text-anchor="start" x="37.629" y="-15.4" font-family="sans-serif" font-size="14.00" fill="#000000"> &#160;Declarations</text>
<polygon fill="#8dd3c7" stroke="transparent" points="127,-10 127,-30 147,-30 147,-10 127,-10"/>
<text text-anchor="start" x="150.7251" y="-15.4" font-family="sans-serif" font-size="14.00" fill="#000000"> &#160;Module</text>
<polygon fill="#80b1d3" stroke="transparent" points="213,-10 213,-30 233,-30 233,-10 213,-10"/>
<text text-anchor="start" x="236.7812" y="-15.4" font-family="sans-serif" font-size="14.00" fill="#000000"> &#160;Bootstrap</text>
<polygon fill="#fdb462" stroke="transparent" points="310,-10 310,-30 330,-30 330,-10 310,-10"/>
<text text-anchor="start" x="333.6732" y="-15.4" font-family="sans-serif" font-size="14.00" fill="#000000"> &#160;Providers</text>
<polygon fill="#fb8072" stroke="transparent" points="406,-10 406,-30 426,-30 426,-10 406,-10"/>
<text text-anchor="start" x="429.7258" y="-15.4" font-family="sans-serif" font-size="14.00" fill="#000000"> &#160;Exports</text>
<g id="clust1" class="cluster">
<title>cluster_CategoryModule</title>
<polygon fill="none" stroke="#000000" stroke-dasharray="1,5" points="91,-70 91,-195 405,-195 405,-70 91,-70"/>
</g>
<g id="clust6" class="cluster">
<title>cluster_CategoryModule_providers</title>
<polygon fill="none" stroke="#000000" points="99,-78 99,-130 397,-130 397,-78 99,-78"/>
</g>
<!-- CategoryService -->
<g id="node1" class="node">
<title>CategoryService</title>
<ellipse fill="#fdb462" stroke="#000000" cx="314" cy="-104" rx="75.279" ry="18"/>
<text text-anchor="middle" x="314" y="-99.8" font-family="Times,serif" font-size="14.00" fill="#000000">CategoryService</text>
</g>
<!-- CategoryModule -->
<g id="node3" class="node">
<title>CategoryModule</title>
<polygon fill="#8dd3c7" stroke="#000000" points="294.3669,-187 291.3669,-191 270.3669,-191 267.3669,-187 183.6331,-187 183.6331,-151 294.3669,-151 294.3669,-187"/>
<text text-anchor="middle" x="239" y="-164.8" font-family="Times,serif" font-size="14.00" fill="#000000">CategoryModule</text>
</g>
<!-- CategoryService&#45;&gt;CategoryModule -->
<g id="edge1" class="edge">
<title>CategoryService&#45;&gt;CategoryModule</title>
<path fill="none" stroke="#000000" d="M266.522,-118.104C266.522,-118.104 266.522,-140.7209 266.522,-140.7209"/>
<polygon fill="#000000" stroke="#000000" points="263.0221,-140.7209 266.522,-150.7209 270.0221,-140.7209 263.0221,-140.7209"/>
</g>
<!-- PostService -->
<g id="node2" class="node">
<title>PostService</title>
<ellipse fill="#fdb462" stroke="#000000" cx="164" cy="-104" rx="56.7561" ry="18"/>
<text text-anchor="middle" x="164" y="-99.8" font-family="Times,serif" font-size="14.00" fill="#000000">PostService</text>
</g>
<!-- PostService&#45;&gt;CategoryModule -->
<g id="edge2" class="edge">
<title>PostService&#45;&gt;CategoryModule</title>
<path fill="none" stroke="#000000" d="M202.0973,-117.468C202.0973,-117.468 202.0973,-140.8642 202.0973,-140.8642"/>
<polygon fill="#000000" stroke="#000000" points="198.5974,-140.8641 202.0973,-150.8642 205.5974,-140.8642 198.5974,-140.8641"/>
</g>
</g>
</svg>
