<?xml version="1.0" encoding="UTF-8" standalone="no"?>
<!DOCTYPE svg PUBLIC "-//W3C//DTD SVG 1.1//EN"
 "http://www.w3.org/Graphics/SVG/1.1/DTD/svg11.dtd">
<!-- Generated by graphviz version 2.40.1 (20161225.0304)
 -->
<!-- Title: dependencies Pages: 1 -->
<svg width="504pt" height="211pt"
 viewBox="0.00 0.00 504.00 211.00" xmlns="http://www.w3.org/2000/svg" xmlns:xlink="http://www.w3.org/1999/xlink">
<g id="graph0" class="graph" transform="scale(1 1) rotate(0) translate(4 207)">
<title>dependencies</title>
<polygon fill="#ffffff" stroke="transparent" points="-4,4 -4,-207 500,-207 500,4 -4,4"/>
<text text-anchor="start" x="227.0091" y="-42.4" font-family="sans-serif" font-weight="bold" font-size="14.00" fill="#000000">Legend</text>
<polygon fill="#ffffb3" stroke="transparent" points="14,-10 14,-30 34,-30 34,-10 14,-10"/>
<text text-anchor="start" x="37.629" y="-15.4" font-family="sans-serif" font-size="14.00" fill="#000000"> &#160;Declarations</text>
<polygon fill="#8dd3c7" stroke="transparent" points="127,-10 127,-30 147,-30 147,-10 127,-10"/>
<text text-anchor="start" x="150.7251" y="-15.4" font-family="sans-serif" font-size="14.00" fill="#000000"> &#160;Module</text>
<polygon fill="#80b1d3" stroke="transparent" points="213,-10 213,-30 233,-30 233,-10 213,-10"/>
<text text-anchor="start" x="236.7812" y="-15.4" font-family="sans-serif" font-size="14.00" fill="#000000"> &#160;Bootstrap</text>
<polygon fill="#fdb462" stroke="transparent" points="310,-10 310,-30 330,-30 330,-10 310,-10"/>
<text text-anchor="start" x="333.6732" y="-15.4" font-family="sans-serif" font-size="14.00" fill="#000000"> &#160;Providers</text>
<polygon fill="#fb8072" stroke="transparent" points="406,-10 406,-30 426,-30 426,-10 406,-10"/>
<text text-anchor="start" x="429.7258" y="-15.4" font-family="sans-serif" font-size="14.00" fill="#000000"> &#160;Exports</text>
<g id="clust1" class="cluster">
<title>cluster_ReplyModule</title>
<polygon fill="none" stroke="#000000" stroke-dasharray="1,5" points="82,-70 82,-195 414,-195 414,-70 82,-70"/>
</g>
<g id="clust6" class="cluster">
<title>cluster_ReplyModule_providers</title>
<polygon fill="none" stroke="#000000" points="90,-78 90,-130 406,-130 406,-78 90,-78"/>
</g>
<!-- CommentService -->
<g id="node1" class="node">
<title>CommentService</title>
<ellipse fill="#fdb462" stroke="#000000" cx="320" cy="-104" rx="78.1675" ry="18"/>
<text text-anchor="middle" x="320" y="-99.8" font-family="Times,serif" font-size="14.00" fill="#000000">CommentService</text>
</g>
<!-- ReplyModule -->
<g id="node3" class="node">
<title>ReplyModule</title>
<polygon fill="#8dd3c7" stroke="#000000" points="286.4916,-187 283.4916,-191 262.4916,-191 259.4916,-187 193.5084,-187 193.5084,-151 286.4916,-151 286.4916,-187"/>
<text text-anchor="middle" x="240" y="-164.8" font-family="Times,serif" font-size="14.00" fill="#000000">ReplyModule</text>
</g>
<!-- CommentService&#45;&gt;ReplyModule -->
<g id="edge1" class="edge">
<title>CommentService&#45;&gt;ReplyModule</title>
<path fill="none" stroke="#000000" d="M264.206,-116.8419C264.206,-116.8419 264.206,-140.5231 264.206,-140.5231"/>
<polygon fill="#000000" stroke="#000000" points="260.7061,-140.523 264.206,-150.5231 267.7061,-140.5231 260.7061,-140.523"/>
</g>
<!-- ReplyService -->
<g id="node2" class="node">
<title>ReplyService</title>
<ellipse fill="#fdb462" stroke="#000000" cx="161" cy="-104" rx="63.1189" ry="18"/>
<text text-anchor="middle" x="161" y="-99.8" font-family="Times,serif" font-size="14.00" fill="#000000">ReplyService</text>
</g>
<!-- ReplyService&#45;&gt;ReplyModule -->
<g id="edge2" class="edge">
<title>ReplyService&#45;&gt;ReplyModule</title>
<path fill="none" stroke="#000000" d="M208.7818,-115.922C208.7818,-115.922 208.7818,-140.7669 208.7818,-140.7669"/>
<polygon fill="#000000" stroke="#000000" points="205.2819,-140.7669 208.7818,-150.7669 212.2819,-140.7669 205.2819,-140.7669"/>
</g>
</g>
</svg>
