<?xml version="1.0" encoding="UTF-8" standalone="no"?>
<!DOCTYPE svg PUBLIC "-//W3C//DTD SVG 1.1//EN"
 "http://www.w3.org/Graphics/SVG/1.1/DTD/svg11.dtd">
<!-- Generated by graphviz version 2.40.1 (20161225.0304)
 -->
<!-- Title: dependencies Pages: 1 -->
<svg width="976pt" height="211pt"
 viewBox="0.00 0.00 976.00 211.00" xmlns="http://www.w3.org/2000/svg" xmlns:xlink="http://www.w3.org/1999/xlink">
<g id="graph0" class="graph" transform="scale(1 1) rotate(0) translate(4 207)">
<title>dependencies</title>
<polygon fill="#ffffff" stroke="transparent" points="-4,4 -4,-207 972,-207 972,4 -4,4"/>
<text text-anchor="start" x="463.0091" y="-42.4" font-family="sans-serif" font-weight="bold" font-size="14.00" fill="#000000">Legend</text>
<polygon fill="#ffffb3" stroke="transparent" points="250,-10 250,-30 270,-30 270,-10 250,-10"/>
<text text-anchor="start" x="273.629" y="-15.4" font-family="sans-serif" font-size="14.00" fill="#000000"> &#160;Declarations</text>
<polygon fill="#8dd3c7" stroke="transparent" points="363,-10 363,-30 383,-30 383,-10 363,-10"/>
<text text-anchor="start" x="386.7251" y="-15.4" font-family="sans-serif" font-size="14.00" fill="#000000"> &#160;Module</text>
<polygon fill="#80b1d3" stroke="transparent" points="449,-10 449,-30 469,-30 469,-10 449,-10"/>
<text text-anchor="start" x="472.7812" y="-15.4" font-family="sans-serif" font-size="14.00" fill="#000000"> &#160;Bootstrap</text>
<polygon fill="#fdb462" stroke="transparent" points="546,-10 546,-30 566,-30 566,-10 546,-10"/>
<text text-anchor="start" x="569.6732" y="-15.4" font-family="sans-serif" font-size="14.00" fill="#000000"> &#160;Providers</text>
<polygon fill="#fb8072" stroke="transparent" points="642,-10 642,-30 662,-30 662,-10 642,-10"/>
<text text-anchor="start" x="665.7258" y="-15.4" font-family="sans-serif" font-size="14.00" fill="#000000"> &#160;Exports</text>
<g id="clust1" class="cluster">
<title>cluster_AppModule</title>
<polygon fill="none" stroke="#000000" stroke-dasharray="1,5" points="8,-70 8,-195 960,-195 960,-70 8,-70"/>
</g>
<g id="clust3" class="cluster">
<title>cluster_AppModule_imports</title>
<polygon fill="none" stroke="#000000" points="154,-78 154,-130 952,-130 952,-78 154,-78"/>
</g>
<g id="clust6" class="cluster">
<title>cluster_AppModule_providers</title>
<polygon fill="none" stroke="#000000" points="16,-78 16,-130 146,-130 146,-78 16,-78"/>
</g>
<!-- AuthModule -->
<g id="node1" class="node">
<title>AuthModule</title>
<polygon fill="#8dd3c7" stroke="#000000" points="943.5482,-122 940.5482,-126 919.5482,-126 916.5482,-122 856.4518,-122 856.4518,-86 943.5482,-86 943.5482,-122"/>
<text text-anchor="middle" x="900" y="-99.8" font-family="Times,serif" font-size="14.00" fill="#000000">AuthModule</text>
</g>
<!-- AppModule -->
<g id="node8" class="node">
<title>AppModule</title>
<polygon fill="#8dd3c7" stroke="#000000" points="513.6571,-187 510.6571,-191 489.6571,-191 486.6571,-187 430.3429,-187 430.3429,-151 513.6571,-151 513.6571,-187"/>
<text text-anchor="middle" x="472" y="-164.8" font-family="Times,serif" font-size="14.00" fill="#000000">AppModule</text>
</g>
<!-- AuthModule&#45;&gt;AppModule -->
<g id="edge1" class="edge">
<title>AuthModule&#45;&gt;AppModule</title>
<path fill="none" stroke="#000000" d="M900,-122.2921C900,-144.2057 900,-178 900,-178 900,-178 523.8177,-178 523.8177,-178"/>
<polygon fill="#000000" stroke="#000000" points="523.8178,-174.5001 513.8177,-178 523.8177,-181.5001 523.8178,-174.5001"/>
</g>
<!-- CategoryModule -->
<g id="node2" class="node">
<title>CategoryModule</title>
<polygon fill="#8dd3c7" stroke="#000000" points="838.3669,-122 835.3669,-126 814.3669,-126 811.3669,-122 727.6331,-122 727.6331,-86 838.3669,-86 838.3669,-122"/>
<text text-anchor="middle" x="783" y="-99.8" font-family="Times,serif" font-size="14.00" fill="#000000">CategoryModule</text>
</g>
<!-- CategoryModule&#45;&gt;AppModule -->
<g id="edge2" class="edge">
<title>CategoryModule&#45;&gt;AppModule</title>
<path fill="none" stroke="#000000" d="M783,-122.1061C783,-141.3391 783,-169 783,-169 783,-169 523.9428,-169 523.9428,-169"/>
<polygon fill="#000000" stroke="#000000" points="523.9429,-165.5001 513.9428,-169 523.9428,-172.5001 523.9429,-165.5001"/>
</g>
<!-- CommentModule -->
<g id="node3" class="node">
<title>CommentModule</title>
<polygon fill="#8dd3c7" stroke="#000000" points="709.273,-122 706.273,-126 685.273,-126 682.273,-122 594.727,-122 594.727,-86 709.273,-86 709.273,-122"/>
<text text-anchor="middle" x="652" y="-99.8" font-family="Times,serif" font-size="14.00" fill="#000000">CommentModule</text>
</g>
<!-- CommentModule&#45;&gt;AppModule -->
<g id="edge3" class="edge">
<title>CommentModule&#45;&gt;AppModule</title>
<path fill="none" stroke="#000000" d="M652,-122.027C652,-138.3976 652,-160 652,-160 652,-160 523.748,-160 523.748,-160"/>
<polygon fill="#000000" stroke="#000000" points="523.7481,-156.5001 513.748,-160 523.748,-163.5001 523.7481,-156.5001"/>
</g>
<!-- ConfigModule -->
<g id="node4" class="node">
<title>ConfigModule</title>
<polygon fill="#8dd3c7" stroke="#000000" points="576.4386,-122 573.4386,-126 552.4386,-126 549.4386,-122 477.5614,-122 477.5614,-86 576.4386,-86 576.4386,-122"/>
<text text-anchor="middle" x="527" y="-99.8" font-family="Times,serif" font-size="14.00" fill="#000000">ConfigModule</text>
</g>
<!-- ConfigModule&#45;&gt;AppModule -->
<g id="edge4" class="edge">
<title>ConfigModule&#45;&gt;AppModule</title>
<path fill="none" stroke="#000000" d="M495.8047,-122.1061C495.8047,-122.1061 495.8047,-140.991 495.8047,-140.991"/>
<polygon fill="#000000" stroke="#000000" points="492.3048,-140.9909 495.8047,-150.991 499.3048,-140.991 492.3048,-140.9909"/>
</g>
<!-- PostModule -->
<g id="node5" class="node">
<title>PostModule</title>
<polygon fill="#8dd3c7" stroke="#000000" points="459.6683,-122 456.6683,-126 435.6683,-126 432.6683,-122 376.3317,-122 376.3317,-86 459.6683,-86 459.6683,-122"/>
<text text-anchor="middle" x="418" y="-99.8" font-family="Times,serif" font-size="14.00" fill="#000000">PostModule</text>
</g>
<!-- PostModule&#45;&gt;AppModule -->
<g id="edge5" class="edge">
<title>PostModule&#45;&gt;AppModule</title>
<path fill="none" stroke="#000000" d="M445.0028,-122.1061C445.0028,-122.1061 445.0028,-140.991 445.0028,-140.991"/>
<polygon fill="#000000" stroke="#000000" points="441.5029,-140.9909 445.0028,-150.991 448.5029,-140.991 441.5029,-140.9909"/>
</g>
<!-- ReplyModule -->
<g id="node6" class="node">
<title>ReplyModule</title>
<polygon fill="#8dd3c7" stroke="#000000" points="358.4916,-122 355.4916,-126 334.4916,-126 331.4916,-122 265.5084,-122 265.5084,-86 358.4916,-86 358.4916,-122"/>
<text text-anchor="middle" x="312" y="-99.8" font-family="Times,serif" font-size="14.00" fill="#000000">ReplyModule</text>
</g>
<!-- ReplyModule&#45;&gt;AppModule -->
<g id="edge6" class="edge">
<title>ReplyModule&#45;&gt;AppModule</title>
<path fill="none" stroke="#000000" d="M312,-122.027C312,-138.3976 312,-160 312,-160 312,-160 419.9619,-160 419.9619,-160"/>
<polygon fill="#000000" stroke="#000000" points="419.9619,-163.5001 429.9619,-160 419.9618,-156.5001 419.9619,-163.5001"/>
</g>
<!-- UserModule -->
<g id="node7" class="node">
<title>UserModule</title>
<polygon fill="#8dd3c7" stroke="#000000" points="247.9762,-122 244.9762,-126 223.9762,-126 220.9762,-122 162.0238,-122 162.0238,-86 247.9762,-86 247.9762,-122"/>
<text text-anchor="middle" x="205" y="-99.8" font-family="Times,serif" font-size="14.00" fill="#000000">UserModule</text>
</g>
<!-- UserModule&#45;&gt;AppModule -->
<g id="edge7" class="edge">
<title>UserModule&#45;&gt;AppModule</title>
<path fill="none" stroke="#000000" d="M205,-122.1061C205,-141.3391 205,-169 205,-169 205,-169 420.2813,-169 420.2813,-169"/>
<polygon fill="#000000" stroke="#000000" points="420.2813,-172.5001 430.2813,-169 420.2812,-165.5001 420.2813,-172.5001"/>
</g>
<!-- AppService -->
<g id="node9" class="node">
<title>AppService</title>
<ellipse fill="#fdb462" stroke="#000000" cx="81" cy="-104" rx="56.7406" ry="18"/>
<text text-anchor="middle" x="81" y="-99.8" font-family="Times,serif" font-size="14.00" fill="#000000">AppService</text>
</g>
<!-- AppService&#45;&gt;AppModule -->
<g id="edge8" class="edge">
<title>AppService&#45;&gt;AppModule</title>
<path fill="none" stroke="#000000" d="M81,-122.2921C81,-144.2057 81,-178 81,-178 81,-178 420.1562,-178 420.1562,-178"/>
<polygon fill="#000000" stroke="#000000" points="420.1562,-181.5001 430.1562,-178 420.1561,-174.5001 420.1562,-181.5001"/>
</g>
</g>
</svg>
