<?xml version="1.0" encoding="UTF-8" standalone="no"?>
<!DOCTYPE svg PUBLIC "-//W3C//DTD SVG 1.1//EN"
 "http://www.w3.org/Graphics/SVG/1.1/DTD/svg11.dtd">
<!-- Generated by graphviz version 2.40.1 (20161225.0304)
 -->
<!-- Title: dependencies Pages: 1 -->
<svg width="1830pt" height="363pt"
 viewBox="0.00 0.00 1830.00 363.00" xmlns="http://www.w3.org/2000/svg" xmlns:xlink="http://www.w3.org/1999/xlink">
<g id="graph0" class="graph" transform="scale(1 1) rotate(0) translate(4 359)">
<title>dependencies</title>
<polygon fill="#ffffff" stroke="transparent" points="-4,4 -4,-359 1826,-359 1826,4 -4,4"/>
<text text-anchor="start" x="890.0091" y="-42.4" font-family="sans-serif" font-weight="bold" font-size="14.00" fill="#000000">Legend</text>
<polygon fill="#ffffb3" stroke="transparent" points="677,-10 677,-30 697,-30 697,-10 677,-10"/>
<text text-anchor="start" x="700.629" y="-15.4" font-family="sans-serif" font-size="14.00" fill="#000000"> &#160;Declarations</text>
<polygon fill="#8dd3c7" stroke="transparent" points="790,-10 790,-30 810,-30 810,-10 790,-10"/>
<text text-anchor="start" x="813.7251" y="-15.4" font-family="sans-serif" font-size="14.00" fill="#000000"> &#160;Module</text>
<polygon fill="#80b1d3" stroke="transparent" points="876,-10 876,-30 896,-30 896,-10 876,-10"/>
<text text-anchor="start" x="899.7812" y="-15.4" font-family="sans-serif" font-size="14.00" fill="#000000"> &#160;Bootstrap</text>
<polygon fill="#fdb462" stroke="transparent" points="973,-10 973,-30 993,-30 993,-10 973,-10"/>
<text text-anchor="start" x="996.6732" y="-15.4" font-family="sans-serif" font-size="14.00" fill="#000000"> &#160;Providers</text>
<polygon fill="#fb8072" stroke="transparent" points="1069,-10 1069,-30 1089,-30 1089,-10 1069,-10"/>
<text text-anchor="start" x="1092.7258" y="-15.4" font-family="sans-serif" font-size="14.00" fill="#000000"> &#160;Exports</text>
<g id="clust1" class="cluster">
<title>cluster_AppModule</title>
<polygon fill="none" stroke="#000000" stroke-dasharray="1,5" points="560,-146 560,-347 1406,-347 1406,-146 560,-146"/>
</g>
<g id="clust3" class="cluster">
<title>cluster_AppModule_imports</title>
<polygon fill="none" stroke="#000000" points="706,-154 706,-282 1398,-282 1398,-154 706,-154"/>
</g>
<g id="clust6" class="cluster">
<title>cluster_AppModule_providers</title>
<polygon fill="none" stroke="#000000" points="568,-230 568,-282 698,-282 698,-230 568,-230"/>
</g>
<g id="clust7" class="cluster">
<title>cluster_AuthModule</title>
<polygon fill="none" stroke="#000000" stroke-dasharray="1,5" points="8,-146 8,-214 552,-214 552,-146 8,-146"/>
</g>
<g id="clust10" class="cluster">
<title>cluster_AuthModule_exports</title>
<polygon fill="none" stroke="#000000" points="438,-154 438,-206 544,-206 544,-154 438,-154"/>
</g>
<g id="clust12" class="cluster">
<title>cluster_AuthModule_providers</title>
<polygon fill="none" stroke="#000000" points="16,-154 16,-206 430,-206 430,-154 16,-154"/>
</g>
<g id="clust13" class="cluster">
<title>cluster_CategoryModule</title>
<polygon fill="none" stroke="#000000" stroke-dasharray="1,5" points="603,-70 603,-138 917,-138 917,-70 603,-70"/>
</g>
<g id="clust18" class="cluster">
<title>cluster_CategoryModule_providers</title>
<polygon fill="none" stroke="#000000" points="611,-78 611,-130 909,-130 909,-78 611,-78"/>
</g>
<g id="clust19" class="cluster">
<title>cluster_CommentModule</title>
<polygon fill="none" stroke="#000000" stroke-dasharray="1,5" points="925,-70 925,-138 1113,-138 1113,-70 925,-70"/>
</g>
<g id="clust24" class="cluster">
<title>cluster_CommentModule_providers</title>
<polygon fill="none" stroke="#000000" points="933,-78 933,-130 1105,-130 1105,-78 933,-78"/>
</g>
<g id="clust25" class="cluster">
<title>cluster_ConfigModule</title>
<polygon fill="none" stroke="#000000" stroke-dasharray="1,5" points="1414,-222 1414,-290 1546,-290 1546,-222 1414,-222"/>
</g>
<g id="clust28" class="cluster">
<title>cluster_ConfigModule_exports</title>
<polygon fill="none" stroke="#000000" points="1422,-230 1422,-282 1538,-282 1538,-230 1422,-230"/>
</g>
<g id="clust31" class="cluster">
<title>cluster_PostModule</title>
<polygon fill="none" stroke="#000000" stroke-dasharray="1,5" points="1121,-70 1121,-138 1279,-138 1279,-70 1121,-70"/>
</g>
<g id="clust36" class="cluster">
<title>cluster_PostModule_providers</title>
<polygon fill="none" stroke="#000000" points="1129,-78 1129,-130 1271,-130 1271,-78 1129,-78"/>
</g>
<g id="clust43" class="cluster">
<title>cluster_UserModule</title>
<polygon fill="none" stroke="#000000" stroke-dasharray="1,5" points="1554,-222 1554,-290 1814,-290 1814,-222 1554,-222"/>
</g>
<g id="clust46" class="cluster">
<title>cluster_UserModule_exports</title>
<polygon fill="none" stroke="#000000" points="1702,-230 1702,-282 1806,-282 1806,-230 1702,-230"/>
</g>
<g id="clust48" class="cluster">
<title>cluster_UserModule_providers</title>
<polygon fill="none" stroke="#000000" points="1562,-230 1562,-282 1694,-282 1694,-230 1562,-230"/>
</g>
<!-- AuthModule -->
<g id="node1" class="node">
<title>AuthModule</title>
<polygon fill="#8dd3c7" stroke="#000000" points="801.5482,-274 798.5482,-278 777.5482,-278 774.5482,-274 714.4518,-274 714.4518,-238 801.5482,-238 801.5482,-274"/>
<text text-anchor="middle" x="758" y="-251.8" font-family="Times,serif" font-size="14.00" fill="#000000">AuthModule</text>
</g>
<!-- AppModule -->
<g id="node8" class="node">
<title>AppModule</title>
<polygon fill="#8dd3c7" stroke="#000000" points="999.6571,-339 996.6571,-343 975.6571,-343 972.6571,-339 916.3429,-339 916.3429,-303 999.6571,-303 999.6571,-339"/>
<text text-anchor="middle" x="958" y="-316.8" font-family="Times,serif" font-size="14.00" fill="#000000">AppModule</text>
</g>
<!-- AuthModule&#45;&gt;AppModule -->
<g id="edge1" class="edge">
<title>AuthModule&#45;&gt;AppModule</title>
<path fill="none" stroke="#000000" d="M801.825,-265C852.7576,-265 929.91,-265 929.91,-265 929.91,-265 929.91,-292.973 929.91,-292.973"/>
<polygon fill="#000000" stroke="#000000" points="926.4101,-292.973 929.91,-302.973 933.4101,-292.973 926.4101,-292.973"/>
</g>
<!-- AuthService  -->
<g id="node10" class="node">
<title>AuthService </title>
<polygon fill="#fb8072" stroke="#000000" points="535.9761,-198 446.0239,-198 446.0239,-162 535.9761,-162 535.9761,-198"/>
<text text-anchor="middle" x="491" y="-175.8" font-family="Times,serif" font-size="14.00" fill="#000000">AuthService </text>
</g>
<!-- AuthModule&#45;&gt;AuthService  -->
<g id="edge10" class="edge">
<title>AuthModule&#45;&gt;AuthService </title>
<path fill="none" stroke="#000000" stroke-dasharray="5,2" d="M714.3929,-256C706.965,-256 701.5934,-256 701.5934,-256 701.5934,-256 701.5934,-180 701.5934,-180 701.5934,-180 545.9193,-180 545.9193,-180"/>
<polygon fill="#000000" stroke="#000000" points="545.9193,-176.5001 535.9193,-180 545.9192,-183.5001 545.9193,-176.5001"/>
</g>
<!-- CategoryModule -->
<g id="node2" class="node">
<title>CategoryModule</title>
<polygon fill="#8dd3c7" stroke="#000000" points="824.3669,-198 821.3669,-202 800.3669,-202 797.3669,-198 713.6331,-198 713.6331,-162 824.3669,-162 824.3669,-198"/>
<text text-anchor="middle" x="769" y="-175.8" font-family="Times,serif" font-size="14.00" fill="#000000">CategoryModule</text>
</g>
<!-- CategoryModule&#45;&gt;AppModule -->
<g id="edge2" class="edge">
<title>CategoryModule&#45;&gt;AppModule</title>
<path fill="none" stroke="#000000" d="M813.1035,-198.2067C813.1035,-235.0559 813.1035,-315 813.1035,-315 813.1035,-315 906.0899,-315 906.0899,-315"/>
<polygon fill="#000000" stroke="#000000" points="906.0899,-318.5001 916.0899,-315 906.0899,-311.5001 906.0899,-318.5001"/>
</g>
<!-- CommentModule -->
<g id="node3" class="node">
<title>CommentModule</title>
<polygon fill="#8dd3c7" stroke="#000000" points="957.273,-198 954.273,-202 933.273,-202 930.273,-198 842.727,-198 842.727,-162 957.273,-162 957.273,-198"/>
<text text-anchor="middle" x="900" y="-175.8" font-family="Times,serif" font-size="14.00" fill="#000000">CommentModule</text>
</g>
<!-- CommentModule&#45;&gt;AppModule -->
<g id="edge3" class="edge">
<title>CommentModule&#45;&gt;AppModule</title>
<path fill="none" stroke="#000000" d="M943.6482,-198.1446C943.6482,-198.1446 943.6482,-292.925 943.6482,-292.925"/>
<polygon fill="#000000" stroke="#000000" points="940.1483,-292.925 943.6482,-302.925 947.1483,-292.925 940.1483,-292.925"/>
</g>
<!-- ConfigModule -->
<g id="node4" class="node">
<title>ConfigModule</title>
<polygon fill="#8dd3c7" stroke="#000000" points="1286.4386,-198 1283.4386,-202 1262.4386,-202 1259.4386,-198 1187.5614,-198 1187.5614,-162 1286.4386,-162 1286.4386,-198"/>
<text text-anchor="middle" x="1237" y="-175.8" font-family="Times,serif" font-size="14.00" fill="#000000">ConfigModule</text>
</g>
<!-- ConfigModule&#45;&gt;AppModule -->
<g id="edge4" class="edge">
<title>ConfigModule&#45;&gt;AppModule</title>
<path fill="none" stroke="#000000" d="M1220.5937,-198.1446C1220.5937,-236.2265 1220.5937,-321 1220.5937,-321 1220.5937,-321 1009.8991,-321 1009.8991,-321"/>
<polygon fill="#000000" stroke="#000000" points="1009.8992,-317.5001 999.8991,-321 1009.8991,-324.5001 1009.8992,-317.5001"/>
</g>
<!-- ConfigService  -->
<g id="node17" class="node">
<title>ConfigService </title>
<polygon fill="#fb8072" stroke="#000000" points="1530.3661,-274 1429.6339,-274 1429.6339,-238 1530.3661,-238 1530.3661,-274"/>
<text text-anchor="middle" x="1480" y="-251.8" font-family="Times,serif" font-size="14.00" fill="#000000">ConfigService </text>
</g>
<!-- ConfigModule&#45;&gt;ConfigService  -->
<g id="edge17" class="edge">
<title>ConfigModule&#45;&gt;ConfigService </title>
<path fill="none" stroke="#000000" stroke-dasharray="5,2" d="M1253.4063,-198.0109C1253.4063,-220.4852 1253.4063,-256 1253.4063,-256 1253.4063,-256 1419.7115,-256 1419.7115,-256"/>
<polygon fill="#000000" stroke="#000000" points="1419.7115,-259.5001 1429.7115,-256 1419.7115,-252.5001 1419.7115,-259.5001"/>
</g>
<!-- PostModule -->
<g id="node5" class="node">
<title>PostModule</title>
<polygon fill="#8dd3c7" stroke="#000000" points="1058.6683,-198 1055.6683,-202 1034.6683,-202 1031.6683,-198 975.3317,-198 975.3317,-162 1058.6683,-162 1058.6683,-198"/>
<text text-anchor="middle" x="1017" y="-175.8" font-family="Times,serif" font-size="14.00" fill="#000000">PostModule</text>
</g>
<!-- PostModule&#45;&gt;AppModule -->
<g id="edge5" class="edge">
<title>PostModule&#45;&gt;AppModule</title>
<path fill="none" stroke="#000000" d="M987.4972,-198.1446C987.4972,-198.1446 987.4972,-292.925 987.4972,-292.925"/>
<polygon fill="#000000" stroke="#000000" points="983.9973,-292.925 987.4972,-302.925 990.9973,-292.925 983.9973,-292.925"/>
</g>
<!-- ReplyModule -->
<g id="node6" class="node">
<title>ReplyModule</title>
<polygon fill="#8dd3c7" stroke="#000000" points="1169.4916,-198 1166.4916,-202 1145.4916,-202 1142.4916,-198 1076.5084,-198 1076.5084,-162 1169.4916,-162 1169.4916,-198"/>
<text text-anchor="middle" x="1123" y="-175.8" font-family="Times,serif" font-size="14.00" fill="#000000">ReplyModule</text>
</g>
<!-- ReplyModule&#45;&gt;AppModule -->
<g id="edge6" class="edge">
<title>ReplyModule&#45;&gt;AppModule</title>
<path fill="none" stroke="#000000" d="M1123,-198.0773C1123,-234.2287 1123,-312 1123,-312 1123,-312 1010.0634,-312 1010.0634,-312"/>
<polygon fill="#000000" stroke="#000000" points="1010.0634,-308.5001 1000.0634,-312 1010.0634,-315.5001 1010.0634,-308.5001"/>
</g>
<!-- UserModule -->
<g id="node7" class="node">
<title>UserModule</title>
<polygon fill="#8dd3c7" stroke="#000000" points="1389.9762,-198 1386.9762,-202 1365.9762,-202 1362.9762,-198 1304.0238,-198 1304.0238,-162 1389.9762,-162 1389.9762,-198"/>
<text text-anchor="middle" x="1347" y="-175.8" font-family="Times,serif" font-size="14.00" fill="#000000">UserModule</text>
</g>
<!-- UserModule&#45;&gt;AuthModule -->
<g id="edge9" class="edge">
<title>UserModule&#45;&gt;AuthModule</title>
<path fill="none" stroke="#000000" d="M1332.6706,-198.308C1332.6706,-218.1455 1332.6706,-247 1332.6706,-247 1332.6706,-247 811.6654,-247 811.6654,-247"/>
<polygon fill="#000000" stroke="#000000" points="811.6654,-243.5001 801.6654,-247 811.6653,-250.5001 811.6654,-243.5001"/>
</g>
<!-- UserModule&#45;&gt;AppModule -->
<g id="edge7" class="edge">
<title>UserModule&#45;&gt;AppModule</title>
<path fill="none" stroke="#000000" d="M1361.3294,-198.0935C1361.3294,-237.9889 1361.3294,-330 1361.3294,-330 1361.3294,-330 1010.0219,-330 1010.0219,-330"/>
<polygon fill="#000000" stroke="#000000" points="1010.0219,-326.5001 1000.0219,-330 1010.0219,-333.5001 1010.0219,-326.5001"/>
</g>
<!-- UserService  -->
<g id="node19" class="node">
<title>UserService </title>
<polygon fill="#fb8072" stroke="#000000" points="1797.9041,-274 1710.0959,-274 1710.0959,-238 1797.9041,-238 1797.9041,-274"/>
<text text-anchor="middle" x="1754" y="-251.8" font-family="Times,serif" font-size="14.00" fill="#000000">UserService </text>
</g>
<!-- UserModule&#45;&gt;UserService  -->
<g id="edge22" class="edge">
<title>UserModule&#45;&gt;UserService </title>
<path fill="none" stroke="#000000" stroke-dasharray="5,2" d="M1390.1708,-174C1494.9172,-174 1754,-174 1754,-174 1754,-174 1754,-227.8015 1754,-227.8015"/>
<polygon fill="#000000" stroke="#000000" points="1750.5001,-227.8015 1754,-237.8015 1757.5001,-227.8016 1750.5001,-227.8015"/>
</g>
<!-- AppService -->
<g id="node9" class="node">
<title>AppService</title>
<ellipse fill="#fdb462" stroke="#000000" cx="633" cy="-256" rx="56.7406" ry="18"/>
<text text-anchor="middle" x="633" y="-251.8" font-family="Times,serif" font-size="14.00" fill="#000000">AppService</text>
</g>
<!-- AppService&#45;&gt;AppModule -->
<g id="edge8" class="edge">
<title>AppService&#45;&gt;AppModule</title>
<path fill="none" stroke="#000000" d="M633,-274.2843C633,-295.3211 633,-327 633,-327 633,-327 906.1773,-327 906.1773,-327"/>
<polygon fill="#000000" stroke="#000000" points="906.1773,-330.5001 916.1773,-327 906.1772,-323.5001 906.1773,-330.5001"/>
</g>
<!-- AuthService -->
<g id="node11" class="node">
<title>AuthService</title>
<ellipse fill="#fdb462" stroke="#000000" cx="363" cy="-180" rx="59.1083" ry="18"/>
<text text-anchor="middle" x="363" y="-175.8" font-family="Times,serif" font-size="14.00" fill="#000000">AuthService</text>
</g>
<!-- AuthService&#45;&gt;AuthModule -->
<g id="edge11" class="edge">
<title>AuthService&#45;&gt;AuthModule</title>
<path fill="none" stroke="#000000" d="M363,-198.207C363,-203.5549 363,-208 363,-208 363,-208 779.8868,-208 779.8868,-208 779.8868,-208 779.8868,-227.8533 779.8868,-227.8533"/>
<polygon fill="#000000" stroke="#000000" points="776.3868,-227.8532 779.8868,-237.8533 783.3868,-227.8533 776.3868,-227.8532"/>
</g>
<!-- JwtStrategy -->
<g id="node12" class="node">
<title>JwtStrategy</title>
<ellipse fill="#fdb462" stroke="#000000" cx="229" cy="-180" rx="56.7561" ry="18"/>
<text text-anchor="middle" x="229" y="-175.8" font-family="Times,serif" font-size="14.00" fill="#000000">JwtStrategy</text>
</g>
<!-- JwtStrategy&#45;&gt;AuthModule -->
<g id="edge12" class="edge">
<title>JwtStrategy&#45;&gt;AuthModule</title>
<path fill="none" stroke="#000000" d="M229,-198.1097C229,-207.897 229,-218 229,-218 229,-218 758,-218 758,-218 758,-218 758,-227.8903 758,-227.8903"/>
<polygon fill="#000000" stroke="#000000" points="754.5001,-227.8903 758,-237.8903 761.5001,-227.8904 754.5001,-227.8903"/>
</g>
<!-- LocalStrategy -->
<g id="node13" class="node">
<title>LocalStrategy</title>
<ellipse fill="#fdb462" stroke="#000000" cx="89" cy="-180" rx="65.4053" ry="18"/>
<text text-anchor="middle" x="89" y="-175.8" font-family="Times,serif" font-size="14.00" fill="#000000">LocalStrategy</text>
</g>
<!-- LocalStrategy&#45;&gt;AuthModule -->
<g id="edge13" class="edge">
<title>LocalStrategy&#45;&gt;AuthModule</title>
<path fill="none" stroke="#000000" d="M89,-198.1467C89,-211.7395 89,-228 89,-228 89,-228 736.1133,-228 736.1133,-228 736.1133,-228 736.1133,-228.9793 736.1133,-228.9793"/>
<polygon fill="#000000" stroke="#000000" points="732.6134,-227.793 736.1133,-237.793 739.6134,-227.7931 732.6134,-227.793"/>
</g>
<!-- CategoryService -->
<g id="node14" class="node">
<title>CategoryService</title>
<ellipse fill="#fdb462" stroke="#000000" cx="694" cy="-104" rx="75.279" ry="18"/>
<text text-anchor="middle" x="694" y="-99.8" font-family="Times,serif" font-size="14.00" fill="#000000">CategoryService</text>
</g>
<!-- CategoryService&#45;&gt;CategoryModule -->
<g id="edge14" class="edge">
<title>CategoryService&#45;&gt;CategoryModule</title>
<path fill="none" stroke="#000000" d="M741.478,-118.295C741.478,-118.295 741.478,-151.7342 741.478,-151.7342"/>
<polygon fill="#000000" stroke="#000000" points="737.9781,-151.7341 741.478,-161.7342 744.9781,-151.7342 737.9781,-151.7341"/>
</g>
<!-- PostService -->
<g id="node15" class="node">
<title>PostService</title>
<ellipse fill="#fdb462" stroke="#000000" cx="844" cy="-104" rx="56.7561" ry="18"/>
<text text-anchor="middle" x="844" y="-99.8" font-family="Times,serif" font-size="14.00" fill="#000000">PostService</text>
</g>
<!-- PostService&#45;&gt;CategoryModule -->
<g id="edge15" class="edge">
<title>PostService&#45;&gt;CategoryModule</title>
<path fill="none" stroke="#000000" d="M805.9027,-117.5873C805.9027,-117.5873 805.9027,-151.9574 805.9027,-151.9574"/>
<polygon fill="#000000" stroke="#000000" points="802.4028,-151.9574 805.9027,-161.9574 809.4028,-151.9575 802.4028,-151.9574"/>
</g>
<!-- PostService&#45;&gt;PostModule -->
<g id="edge18" class="edge">
<title>PostService&#45;&gt;PostModule</title>
<path fill="none" stroke="#000000" d="M871.6208,-119.7388C871.6208,-132.7155 871.6208,-149 871.6208,-149 871.6208,-149 1003.0554,-149 1003.0554,-149 1003.0554,-149 1003.0554,-151.9672 1003.0554,-151.9672"/>
<polygon fill="#000000" stroke="#000000" points="999.5555,-151.9671 1003.0554,-161.9672 1006.5555,-151.9672 999.5555,-151.9671"/>
</g>
<!-- CommentService -->
<g id="node16" class="node">
<title>CommentService</title>
<ellipse fill="#fdb462" stroke="#000000" cx="1019" cy="-104" rx="78.1675" ry="18"/>
<text text-anchor="middle" x="1019" y="-99.8" font-family="Times,serif" font-size="14.00" fill="#000000">CommentService</text>
</g>
<!-- CommentService&#45;&gt;CommentModule -->
<g id="edge16" class="edge">
<title>CommentService&#45;&gt;CommentModule</title>
<path fill="none" stroke="#000000" d="M949.1513,-112.1333C949.1513,-112.1333 949.1513,-151.8806 949.1513,-151.8806"/>
<polygon fill="#000000" stroke="#000000" points="945.6514,-151.8806 949.1513,-161.8806 952.6514,-151.8806 945.6514,-151.8806"/>
</g>
<!-- CommentService&#45;&gt;ReplyModule -->
<g id="edge20" class="edge">
<title>CommentService&#45;&gt;ReplyModule</title>
<path fill="none" stroke="#000000" d="M1086.794,-113.0166C1086.794,-113.0166 1086.794,-151.7357 1086.794,-151.7357"/>
<polygon fill="#000000" stroke="#000000" points="1083.2941,-151.7356 1086.794,-161.7357 1090.2941,-151.7357 1083.2941,-151.7356"/>
</g>
<!-- ReplyService -->
<g id="node18" class="node">
<title>ReplyService</title>
<ellipse fill="#fdb462" stroke="#000000" cx="1200" cy="-104" rx="63.1189" ry="18"/>
<text text-anchor="middle" x="1200" y="-99.8" font-family="Times,serif" font-size="14.00" fill="#000000">ReplyService</text>
</g>
<!-- ReplyService&#45;&gt;PostModule -->
<g id="edge19" class="edge">
<title>ReplyService&#45;&gt;PostModule</title>
<path fill="none" stroke="#000000" d="M1147.7923,-114.125C1147.7923,-123.5 1147.7923,-136 1147.7923,-136 1147.7923,-136 1030.9446,-136 1030.9446,-136 1030.9446,-136 1030.9446,-151.8495 1030.9446,-151.8495"/>
<polygon fill="#000000" stroke="#000000" points="1027.4447,-151.8494 1030.9446,-161.8495 1034.4447,-151.8495 1027.4447,-151.8494"/>
</g>
<!-- ReplyService&#45;&gt;ReplyModule -->
<g id="edge21" class="edge">
<title>ReplyService&#45;&gt;ReplyModule</title>
<path fill="none" stroke="#000000" d="M1158.6441,-117.9396C1158.6441,-117.9396 1158.6441,-151.8444 1158.6441,-151.8444"/>
<polygon fill="#000000" stroke="#000000" points="1155.1442,-151.8444 1158.6441,-161.8444 1162.1442,-151.8444 1155.1442,-151.8444"/>
</g>
<!-- ReplyService&#45;&gt;UserModule -->
<g id="edge23" class="edge">
<title>ReplyService&#45;&gt;UserModule</title>
<path fill="none" stroke="#000000" d="M1263.1943,-104C1303.0364,-104 1347,-104 1347,-104 1347,-104 1347,-151.9891 1347,-151.9891"/>
<polygon fill="#000000" stroke="#000000" points="1343.5001,-151.989 1347,-161.9891 1350.5001,-151.9891 1343.5001,-151.989"/>
</g>
<!-- UserService -->
<g id="node20" class="node">
<title>UserService</title>
<ellipse fill="#fdb462" stroke="#000000" cx="1628" cy="-256" rx="58.4415" ry="18"/>
<text text-anchor="middle" x="1628" y="-251.8" font-family="Times,serif" font-size="14.00" fill="#000000">UserService</text>
</g>
<!-- UserService&#45;&gt;UserModule -->
<g id="edge24" class="edge">
<title>UserService&#45;&gt;UserModule</title>
<path fill="none" stroke="#000000" d="M1628,-237.9733C1628,-217.2328 1628,-186 1628,-186 1628,-186 1399.9837,-186 1399.9837,-186"/>
<polygon fill="#000000" stroke="#000000" points="1399.9838,-182.5001 1389.9837,-186 1399.9837,-189.5001 1399.9838,-182.5001"/>
</g>
</g>
</svg>
